<mxfile host="app.diagrams.net" modified="2023-04-07T07:00:29.787Z" agent="Mozilla/5.0 (Windows NT 10.0; Win64; x64) AppleWebKit/537.36 (KHTML, like Gecko) Chrome/111.0.0.0 Safari/537.36" etag="GO-xnToGP5EchHxvg8tK" version="21.1.5" type="device">
  <diagram name="페이지-1" id="_FLBQeVoXgX_C2e2CZNO">
    <mxGraphModel dx="1221" dy="743" grid="1" gridSize="10" guides="1" tooltips="1" connect="1" arrows="1" fold="1" page="1" pageScale="1" pageWidth="827" pageHeight="1169" math="0" shadow="0">
      <root>
        <mxCell id="0" />
        <mxCell id="1" parent="0" />
        <mxCell id="AoFc9XYV1KY0OK3CU8TH-1" value="Class Monster" style="swimlane;fontStyle=1;align=center;verticalAlign=top;childLayout=stackLayout;horizontal=1;startSize=26;horizontalStack=0;resizeParent=1;resizeParentMax=0;resizeLast=0;collapsible=1;marginBottom=0;whiteSpace=wrap;html=1;" vertex="1" parent="1">
          <mxGeometry x="111.5" y="240" width="270" height="250" as="geometry" />
        </mxCell>
        <mxCell id="AoFc9XYV1KY0OK3CU8TH-2" value="-&lt;span style=&quot;&quot;&gt;	&lt;/span&gt;monsterData : MonsterData&amp;nbsp;&lt;br&gt;-&lt;span style=&quot;&quot;&gt;	&lt;/span&gt;stateMachine :&amp;nbsp;StateMachine&amp;lt;Monster&amp;gt;&lt;br&gt;-&lt;span style=&quot;&quot;&gt;	&lt;/span&gt;states : State&amp;lt;Monster&amp;gt;[]" style="text;strokeColor=none;fillColor=none;align=left;verticalAlign=top;spacingLeft=4;spacingRight=4;overflow=hidden;rotatable=0;points=[[0,0.5],[1,0.5]];portConstraint=eastwest;whiteSpace=wrap;html=1;" vertex="1" parent="AoFc9XYV1KY0OK3CU8TH-1">
          <mxGeometry y="26" width="270" height="54" as="geometry" />
        </mxCell>
        <mxCell id="AoFc9XYV1KY0OK3CU8TH-3" value="" style="line;strokeWidth=1;fillColor=none;align=left;verticalAlign=middle;spacingTop=-1;spacingLeft=3;spacingRight=3;rotatable=0;labelPosition=right;points=[];portConstraint=eastwest;strokeColor=inherit;" vertex="1" parent="AoFc9XYV1KY0OK3CU8TH-1">
          <mxGeometry y="80" width="270" height="8" as="geometry" />
        </mxCell>
        <mxCell id="AoFc9XYV1KY0OK3CU8TH-4" value="-&lt;span style=&quot;&quot;&gt;	&lt;/span&gt;Setup() : void&lt;br&gt;+ Stop() : void&lt;br&gt;+&lt;span style=&quot;&quot;&gt;	&lt;/span&gt;Hit(float : damage) : void&lt;br&gt;-&amp;nbsp;ChangeState(state : State&amp;lt;Monster&amp;gt;) : void&lt;br style=&quot;border-color: var(--border-color);&quot;&gt;+&amp;nbsp;TurnDirection(direction : Direction) : void&lt;br&gt;+&lt;span style=&quot;&quot;&gt;	&lt;/span&gt;Attack() : IEnumerator&lt;br&gt;+&amp;nbsp;Follow() : IEnumerator&lt;br style=&quot;border-color: var(--border-color);&quot;&gt;+&lt;span style=&quot;&quot;&gt;	&lt;/span&gt;LookAtPlayer() : int&lt;br&gt;+&lt;span style=&quot;&quot;&gt;	&lt;/span&gt;CheckCanStop() : bool&lt;br&gt;+&lt;span style=&quot;&quot;&gt;	&lt;/span&gt;CheckCanMove() : bool&lt;br&gt;" style="text;strokeColor=none;fillColor=none;align=left;verticalAlign=top;spacingLeft=4;spacingRight=4;overflow=hidden;rotatable=0;points=[[0,0.5],[1,0.5]];portConstraint=eastwest;whiteSpace=wrap;html=1;" vertex="1" parent="AoFc9XYV1KY0OK3CU8TH-1">
          <mxGeometry y="88" width="270" height="162" as="geometry" />
        </mxCell>
        <mxCell id="AoFc9XYV1KY0OK3CU8TH-21" value="&lt;p style=&quot;margin:0px;margin-top:4px;text-align:center;&quot;&gt;&lt;i&gt;&amp;lt;&amp;lt;abstract&amp;gt;&amp;gt;&lt;/i&gt;&lt;br&gt;&lt;b&gt;Class State&amp;lt;T&amp;gt; where T : Class&lt;/b&gt;&lt;/p&gt;&lt;hr size=&quot;1&quot;&gt;&lt;p style=&quot;margin:0px;margin-left:4px;&quot;&gt;+ EnterState() : void&lt;/p&gt;&lt;p style=&quot;margin:0px;margin-left:4px;&quot;&gt;+ UpdateState() : void&lt;/p&gt;&lt;p style=&quot;margin:0px;margin-left:4px;&quot;&gt;+ ExitState() : void&lt;/p&gt;" style="verticalAlign=top;align=left;overflow=fill;fontSize=12;fontFamily=Helvetica;html=1;whiteSpace=wrap;" vertex="1" parent="1">
          <mxGeometry x="346" y="830" width="190" height="100" as="geometry" />
        </mxCell>
        <mxCell id="AoFc9XYV1KY0OK3CU8TH-23" value="&lt;b&gt;Class Idle : State&amp;lt;Monster&amp;gt;&lt;/b&gt;" style="swimlane;fontStyle=0;childLayout=stackLayout;horizontal=1;startSize=26;fillColor=none;horizontalStack=0;resizeParent=1;resizeParentMax=0;resizeLast=0;collapsible=1;marginBottom=0;whiteSpace=wrap;html=1;" vertex="1" parent="1">
          <mxGeometry x="130.5" y="580" width="200" height="80" as="geometry" />
        </mxCell>
        <mxCell id="AoFc9XYV1KY0OK3CU8TH-26" value="&lt;p style=&quot;border-color: var(--border-color); margin: 0px 0px 0px 4px;&quot;&gt;+ EnterState() : void&lt;/p&gt;&lt;p style=&quot;border-color: var(--border-color); margin: 0px 0px 0px 4px;&quot;&gt;+ UpdateState() : void&lt;/p&gt;&lt;p style=&quot;border-color: var(--border-color); margin: 0px 0px 0px 4px;&quot;&gt;+ ExitState() : void&lt;/p&gt;" style="text;strokeColor=none;fillColor=none;align=left;verticalAlign=top;spacingLeft=4;spacingRight=4;overflow=hidden;rotatable=0;points=[[0,0.5],[1,0.5]];portConstraint=eastwest;whiteSpace=wrap;html=1;" vertex="1" parent="AoFc9XYV1KY0OK3CU8TH-23">
          <mxGeometry y="26" width="200" height="54" as="geometry" />
        </mxCell>
        <mxCell id="AoFc9XYV1KY0OK3CU8TH-27" value="&lt;b&gt;Class Patrol : State&amp;lt;Monster&amp;gt;&lt;/b&gt;" style="swimlane;fontStyle=0;childLayout=stackLayout;horizontal=1;startSize=26;fillColor=none;horizontalStack=0;resizeParent=1;resizeParentMax=0;resizeLast=0;collapsible=1;marginBottom=0;whiteSpace=wrap;html=1;" vertex="1" parent="1">
          <mxGeometry x="340.5" y="580" width="200" height="80" as="geometry" />
        </mxCell>
        <mxCell id="AoFc9XYV1KY0OK3CU8TH-28" value="&lt;p style=&quot;border-color: var(--border-color); margin: 0px 0px 0px 4px;&quot;&gt;+ EnterState() : void&lt;/p&gt;&lt;p style=&quot;border-color: var(--border-color); margin: 0px 0px 0px 4px;&quot;&gt;+ UpdateState() : void&lt;/p&gt;&lt;p style=&quot;border-color: var(--border-color); margin: 0px 0px 0px 4px;&quot;&gt;+ ExitState() : void&lt;/p&gt;" style="text;strokeColor=none;fillColor=none;align=left;verticalAlign=top;spacingLeft=4;spacingRight=4;overflow=hidden;rotatable=0;points=[[0,0.5],[1,0.5]];portConstraint=eastwest;whiteSpace=wrap;html=1;" vertex="1" parent="AoFc9XYV1KY0OK3CU8TH-27">
          <mxGeometry y="26" width="200" height="54" as="geometry" />
        </mxCell>
        <mxCell id="AoFc9XYV1KY0OK3CU8TH-29" value="&lt;b&gt;Class Hit : State&amp;lt;Monster&amp;gt;&amp;nbsp;&lt;/b&gt;" style="swimlane;fontStyle=0;childLayout=stackLayout;horizontal=1;startSize=26;fillColor=none;horizontalStack=0;resizeParent=1;resizeParentMax=0;resizeLast=0;collapsible=1;marginBottom=0;whiteSpace=wrap;html=1;" vertex="1" parent="1">
          <mxGeometry x="550.5" y="580" width="200" height="80" as="geometry" />
        </mxCell>
        <mxCell id="AoFc9XYV1KY0OK3CU8TH-30" value="&lt;p style=&quot;border-color: var(--border-color); margin: 0px 0px 0px 4px;&quot;&gt;+ EnterState() : void&lt;/p&gt;&lt;p style=&quot;border-color: var(--border-color); margin: 0px 0px 0px 4px;&quot;&gt;+ UpdateState() : void&lt;/p&gt;&lt;p style=&quot;border-color: var(--border-color); margin: 0px 0px 0px 4px;&quot;&gt;+ ExitState() : void&lt;/p&gt;" style="text;strokeColor=none;fillColor=none;align=left;verticalAlign=top;spacingLeft=4;spacingRight=4;overflow=hidden;rotatable=0;points=[[0,0.5],[1,0.5]];portConstraint=eastwest;whiteSpace=wrap;html=1;" vertex="1" parent="AoFc9XYV1KY0OK3CU8TH-29">
          <mxGeometry y="26" width="200" height="54" as="geometry" />
        </mxCell>
        <mxCell id="AoFc9XYV1KY0OK3CU8TH-31" value="&lt;b&gt;Class Follow : State&amp;lt;Monster&amp;gt;&lt;/b&gt;" style="swimlane;fontStyle=0;childLayout=stackLayout;horizontal=1;startSize=26;fillColor=none;horizontalStack=0;resizeParent=1;resizeParentMax=0;resizeLast=0;collapsible=1;marginBottom=0;whiteSpace=wrap;html=1;" vertex="1" parent="1">
          <mxGeometry x="130.5" y="670" width="200" height="80" as="geometry" />
        </mxCell>
        <mxCell id="AoFc9XYV1KY0OK3CU8TH-32" value="&lt;p style=&quot;border-color: var(--border-color); margin: 0px 0px 0px 4px;&quot;&gt;+ EnterState() : void&lt;/p&gt;&lt;p style=&quot;border-color: var(--border-color); margin: 0px 0px 0px 4px;&quot;&gt;+ UpdateState() : void&lt;/p&gt;&lt;p style=&quot;border-color: var(--border-color); margin: 0px 0px 0px 4px;&quot;&gt;+ ExitState() : void&lt;/p&gt;" style="text;strokeColor=none;fillColor=none;align=left;verticalAlign=top;spacingLeft=4;spacingRight=4;overflow=hidden;rotatable=0;points=[[0,0.5],[1,0.5]];portConstraint=eastwest;whiteSpace=wrap;html=1;" vertex="1" parent="AoFc9XYV1KY0OK3CU8TH-31">
          <mxGeometry y="26" width="200" height="54" as="geometry" />
        </mxCell>
        <mxCell id="AoFc9XYV1KY0OK3CU8TH-33" value="&lt;b&gt;Class Attack&lt;/b&gt;&lt;b&gt;&amp;nbsp;: State&amp;lt;Monster&amp;gt;&lt;/b&gt;" style="swimlane;fontStyle=0;childLayout=stackLayout;horizontal=1;startSize=26;fillColor=none;horizontalStack=0;resizeParent=1;resizeParentMax=0;resizeLast=0;collapsible=1;marginBottom=0;whiteSpace=wrap;html=1;" vertex="1" parent="1">
          <mxGeometry x="340.5" y="670" width="200" height="80" as="geometry" />
        </mxCell>
        <mxCell id="AoFc9XYV1KY0OK3CU8TH-34" value="&lt;p style=&quot;border-color: var(--border-color); margin: 0px 0px 0px 4px;&quot;&gt;+ EnterState() : void&lt;/p&gt;&lt;p style=&quot;border-color: var(--border-color); margin: 0px 0px 0px 4px;&quot;&gt;+ UpdateState() : void&lt;/p&gt;&lt;p style=&quot;border-color: var(--border-color); margin: 0px 0px 0px 4px;&quot;&gt;+ ExitState() : void&lt;/p&gt;" style="text;strokeColor=none;fillColor=none;align=left;verticalAlign=top;spacingLeft=4;spacingRight=4;overflow=hidden;rotatable=0;points=[[0,0.5],[1,0.5]];portConstraint=eastwest;whiteSpace=wrap;html=1;" vertex="1" parent="AoFc9XYV1KY0OK3CU8TH-33">
          <mxGeometry y="26" width="200" height="54" as="geometry" />
        </mxCell>
        <mxCell id="AoFc9XYV1KY0OK3CU8TH-35" value="&lt;b&gt;Class Dead&lt;/b&gt;&lt;b&gt;&amp;nbsp;: State&amp;lt;Monster&amp;gt;&lt;/b&gt;" style="swimlane;fontStyle=0;childLayout=stackLayout;horizontal=1;startSize=26;fillColor=none;horizontalStack=0;resizeParent=1;resizeParentMax=0;resizeLast=0;collapsible=1;marginBottom=0;whiteSpace=wrap;html=1;" vertex="1" parent="1">
          <mxGeometry x="550.5" y="670" width="200" height="80" as="geometry" />
        </mxCell>
        <mxCell id="AoFc9XYV1KY0OK3CU8TH-36" value="&lt;p style=&quot;border-color: var(--border-color); margin: 0px 0px 0px 4px;&quot;&gt;+ EnterState() : void&lt;/p&gt;&lt;p style=&quot;border-color: var(--border-color); margin: 0px 0px 0px 4px;&quot;&gt;+ UpdateState() : void&lt;/p&gt;&lt;p style=&quot;border-color: var(--border-color); margin: 0px 0px 0px 4px;&quot;&gt;+ ExitState() : void&lt;/p&gt;" style="text;strokeColor=none;fillColor=none;align=left;verticalAlign=top;spacingLeft=4;spacingRight=4;overflow=hidden;rotatable=0;points=[[0,0.5],[1,0.5]];portConstraint=eastwest;whiteSpace=wrap;html=1;" vertex="1" parent="AoFc9XYV1KY0OK3CU8TH-35">
          <mxGeometry y="26" width="200" height="54" as="geometry" />
        </mxCell>
        <mxCell id="AoFc9XYV1KY0OK3CU8TH-45" value="namespace : MonsterState" style="shape=umlFrame;whiteSpace=wrap;html=1;pointerEvents=0;width=176;height=20;" vertex="1" parent="1">
          <mxGeometry x="111.5" y="550" width="659" height="230" as="geometry" />
        </mxCell>
        <mxCell id="AoFc9XYV1KY0OK3CU8TH-46" value="" style="endArrow=block;endSize=16;endFill=0;html=1;rounded=0;" edge="1" parent="1" source="AoFc9XYV1KY0OK3CU8TH-45" target="AoFc9XYV1KY0OK3CU8TH-21">
          <mxGeometry width="160" relative="1" as="geometry">
            <mxPoint x="300.5" y="520" as="sourcePoint" />
            <mxPoint x="896" y="720" as="targetPoint" />
          </mxGeometry>
        </mxCell>
        <mxCell id="AoFc9XYV1KY0OK3CU8TH-55" style="edgeStyle=orthogonalEdgeStyle;rounded=0;orthogonalLoop=1;jettySize=auto;html=1;" edge="1" parent="1" source="AoFc9XYV1KY0OK3CU8TH-2" target="AoFc9XYV1KY0OK3CU8TH-56">
          <mxGeometry relative="1" as="geometry">
            <mxPoint x="87" y="650" as="targetPoint" />
            <Array as="points">
              <mxPoint x="615" y="293" />
            </Array>
          </mxGeometry>
        </mxCell>
        <mxCell id="AoFc9XYV1KY0OK3CU8TH-56" value="Class StateMachine&amp;lt;T&amp;gt; where T : Class" style="swimlane;fontStyle=1;align=center;verticalAlign=top;childLayout=stackLayout;horizontal=1;startSize=26;horizontalStack=0;resizeParent=1;resizeParentMax=0;resizeLast=0;collapsible=1;marginBottom=0;whiteSpace=wrap;html=1;" vertex="1" parent="1">
          <mxGeometry x="487" y="240" width="270" height="140" as="geometry" />
        </mxCell>
        <mxCell id="AoFc9XYV1KY0OK3CU8TH-57" value="- currentState : State&amp;lt;T&amp;gt;&lt;br&gt;- entity : T" style="text;strokeColor=none;fillColor=none;align=left;verticalAlign=top;spacingLeft=4;spacingRight=4;overflow=hidden;rotatable=0;points=[[0,0.5],[1,0.5]];portConstraint=eastwest;whiteSpace=wrap;html=1;" vertex="1" parent="AoFc9XYV1KY0OK3CU8TH-56">
          <mxGeometry y="26" width="270" height="44" as="geometry" />
        </mxCell>
        <mxCell id="AoFc9XYV1KY0OK3CU8TH-58" value="" style="line;strokeWidth=1;fillColor=none;align=left;verticalAlign=middle;spacingTop=-1;spacingLeft=3;spacingRight=3;rotatable=0;labelPosition=right;points=[];portConstraint=eastwest;strokeColor=inherit;" vertex="1" parent="AoFc9XYV1KY0OK3CU8TH-56">
          <mxGeometry y="70" width="270" height="8" as="geometry" />
        </mxCell>
        <mxCell id="AoFc9XYV1KY0OK3CU8TH-59" value="+ Setup(entity_ :&amp;nbsp; T, firstState : State&amp;lt;T&amp;gt;) : void&lt;br&gt;+ ChangeState(state : State&amp;lt;T&amp;gt;) : void&lt;br&gt;+ UpdateState(state : State&amp;lt;T&amp;gt;) : void" style="text;strokeColor=none;fillColor=none;align=left;verticalAlign=top;spacingLeft=4;spacingRight=4;overflow=hidden;rotatable=0;points=[[0,0.5],[1,0.5]];portConstraint=eastwest;whiteSpace=wrap;html=1;" vertex="1" parent="AoFc9XYV1KY0OK3CU8TH-56">
          <mxGeometry y="78" width="270" height="62" as="geometry" />
        </mxCell>
        <mxCell id="AoFc9XYV1KY0OK3CU8TH-61" value="" style="endArrow=none;html=1;edgeStyle=orthogonalEdgeStyle;rounded=0;entryX=0.001;entryY=0.49;entryDx=0;entryDy=0;entryPerimeter=0;" edge="1" parent="1" source="AoFc9XYV1KY0OK3CU8TH-1" target="AoFc9XYV1KY0OK3CU8TH-45">
          <mxGeometry relative="1" as="geometry">
            <mxPoint x="347" y="370" as="sourcePoint" />
            <mxPoint x="507" y="370" as="targetPoint" />
            <Array as="points">
              <mxPoint x="57" y="365" />
              <mxPoint x="57" y="663" />
            </Array>
          </mxGeometry>
        </mxCell>
        <mxCell id="AoFc9XYV1KY0OK3CU8TH-64" style="edgeStyle=orthogonalEdgeStyle;rounded=0;orthogonalLoop=1;jettySize=auto;html=1;" edge="1" parent="1" source="AoFc9XYV1KY0OK3CU8TH-56" target="AoFc9XYV1KY0OK3CU8TH-45">
          <mxGeometry relative="1" as="geometry">
            <mxPoint x="392" y="303" as="sourcePoint" />
            <mxPoint x="497" y="303" as="targetPoint" />
            <Array as="points" />
          </mxGeometry>
        </mxCell>
      </root>
    </mxGraphModel>
  </diagram>
</mxfile>
